<svg version="1.2" xmlns="http://www.w3.org/2000/svg" viewBox="0 0 145 86" width="145" height="86"><style>.a{fill:none;stroke:#000;stroke-miterlimit:100;stroke-width:2}</style><path  d="m33.2 23.6c1.4-1.7 2.4-4.1 2.1-6.5-2.1 0.1-4.6 1.3-6.1 3.1-1.3 1.5-2.4 4-2.1 6.3 2.3 0.2 4.6-1.1 6.1-2.9z"/><path  d="m35.3 27c-3.4-0.2-6.3 1.9-7.9 1.9-1.6 0-4.1-1.8-6.8-1.8-3.4 0.1-6.7 2.1-8.4 5.2-3.7 6.2-1 15.5 2.5 20.6 1.8 2.6 3.8 5.3 6.6 5.2 2.5-0.1 3.5-1.6 6.7-1.6 3.1 0 4 1.6 6.7 1.6 2.9-0.1 4.6-2.5 6.3-5.1 2-2.8 2.8-5.6 2.9-5.8-0.1 0-5.5-2.1-5.5-8.3-0.1-5.2 4.2-7.7 4.4-7.8-2.4-3.6-6.2-4-7.5-4.1z"/><path fill-rule="evenodd" d="m64.7 19.9c7.4 0 12.5 5.1 12.5 12.5 0 7.4-5.2 12.5-12.7 12.5h-8.1v12.9h-5.9v-37.9zm-8.3 20h6.8c5.1 0 8-2.7 8-7.5 0-4.8-2.9-7.5-8-7.5h-6.8z"/><path fill-rule="evenodd" d="m78.7 50c0-4.9 3.7-7.8 10.3-8.2l7.6-0.4v-2.2c0-3-2.1-4.9-5.6-4.9-3.3 0-5.3 1.6-5.8 4.1h-5.4c0.4-5 4.6-8.7 11.4-8.7 6.7 0 11 3.6 11 9.1v19h-5.4v-4.5h-0.2c-1.6 3.1-5 5-8.7 5-5.4 0-9.2-3.4-9.2-8.3zm17.9-2.5v-2.2l-6.8 0.4c-3.4 0.3-5.3 1.8-5.3 4.1 0 2.4 2 4 5 4 4 0 7.1-2.7 7.1-6.3z"/><path  d="m107.3 68v-4.6c0.5 0.1 1.4 0.1 1.9 0.1 2.6 0 4-1.1 4.9-3.9 0-0.1 0.5-1.7 0.5-1.7l-10-27.7h6.2l6.9 22.5h0.1l7-22.5h6l-10.3 29.1c-2.4 6.7-5.1 8.8-10.8 8.8-0.5 0-1.9 0-2.4-0.1z"/><path class="a" d="m1 1h143v84h-143z"/></svg>