<?xml version="1.0" encoding="utf-8"?>
<!-- Generator: Adobe Illustrator 28.0.0, SVG Export Plug-In . SVG Version: 6.00 Build 0)  -->
<svg version="1.1" id="Type" xmlns="http://www.w3.org/2000/svg" xmlns:xlink="http://www.w3.org/1999/xlink" x="0px" y="0px"
	 viewBox="0 0 786.3 337.9" style="enable-background:new 0 0 786.3 337.9;" xml:space="preserve">
<style type="text/css">
	.st0{fill:#D0D6E3;}
	.st1{fill:#8C8D96;}
</style>
<g>
	<g>
		<path class="st0" d="M322.8,109.8L308,196.2h37.2l-6,35.1h-82l20.9-121.5C278.2,109.8,322.8,109.8,322.8,109.8z"/>
		<path class="st0" d="M400.2,215.1l-6.6,16.2h-47.4l62-121.5h50.3l16.6,121.5h-45l-0.1-16.2H400.2z M411.7,187.4h16.8l-0.7-22
			c-0.1-2-0.1-5.1,0-8.6c0.2-4.4,0.5-5.6,1-9.6h-1.5c-2,7.1-3.3,11.1-6.4,18.2L411.7,187.4L411.7,187.4z"/>
		<path class="st0" d="M592,121.8l-17,30.7c-7-6.6-15.8-10.4-24.8-10.4c-4.5,0-8.1,2.6-8.3,6.1c-0.2,3.6,1.8,4.9,12.3,7.5
			c7.9,2.1,14.3,4.7,18.4,7.6c7.5,5.2,11.9,15.3,11.4,25.9c-1.1,23.3-24.6,42.2-52.6,42.2c-10.8,0-23.6-3.1-34.6-8.3
			c-2.4-1.2-5.9-2.9-10.5-5.6l17.1-31.2c6.5,8.5,17.4,13.7,28.3,13.7c5.9,0,9.8-2.6,10-6.8c0.2-4-3-6.4-10.5-8.2
			c-7.9-1.6-12.2-2.9-16.2-5.2c-10.7-5.4-15.9-15.1-15.3-28.5c1.1-23.1,23.2-41.5,49.6-41.5c11.8,0,24.2,2.8,35.5,8.2
			C586.6,118.8,589,120,592,121.8L592,121.8z"/>
		<path class="st0" d="M732.8,109.8l-20.9,121.5h-44.1l7.6-44.3h-26l-7.5,44.3h-44.1l20.9-121.5h44.1l-7.1,41.5h25.9l7.1-41.5H732.8
			z"/>
	</g>
	<g>
		<path class="st0" d="M192.2,62.5l-3,24.4h10l-0.9,6.9h-17.9l3.8-31.3H192.2L192.2,62.5z"/>
		<path class="st0" d="M223.5,62.5l-0.8,6.9h-9.2l-0.7,5.2h8.9l-0.8,6.8H212l-0.7,5.4h9.6l-0.8,6.9h-17.5l3.8-31.3L223.5,62.5
			L223.5,62.5z"/>
		<path class="st0" d="M257.4,62.5l-16.8,31.3h-6.7l-8.2-31.3h8.4l3.6,14.3c0.6,2.4,0.8,3.2,1,5.7c0.5-1.6,1-2.9,1.8-4.3l8-15.7
			C248.5,62.5,257.4,62.5,257.4,62.5z"/>
		<path class="st0" d="M264.2,88.5l-2.4,5.2H253l15.5-31.3h8.9l7.5,31.3h-8.3l-1.3-5.2H264.2L264.2,88.5z M267.1,82.3h6.8l-1.3-5.9
			c-0.5-2.4-0.6-2.7-0.7-3.6c0-0.2-0.1-0.6-0.2-1.1c-0.5,1.6-0.9,2.6-1.4,3.7L267.1,82.3L267.1,82.3z"/>
		<path class="st0" d="M322.9,62.5l-3.8,31.3h-8.7l-8.3-14c-1.4-2.2-2.5-4.6-3.8-7.7v1.4c0,2.3-0.1,4-0.3,5.9l-1.8,14.4h-7.9
			l3.8-31.3h8.5l8.9,15.1l1.4,2.5l1.2,2.4l0.6,1.2c0-2,0.1-3.5,0.4-5.3l1.9-15.8L322.9,62.5L322.9,62.5z"/>
		<path class="st0" d="M340.3,69.4l-3,24.4h-7.9l3-24.4h-6.7l0.8-6.9h21.2l-0.8,6.9H340.3L340.3,69.4z"/>
		<path class="st0" d="M354.5,88.5l-2.4,5.2h-8.8l15.5-31.3h8.9l7.5,31.3H367l-1.3-5.2H354.5L354.5,88.5z M357.4,82.3h6.8l-1.3-5.9
			c-0.5-2.4-0.6-2.7-0.7-3.6c0-0.2-0.1-0.6-0.2-1.1c-0.5,1.6-0.9,2.6-1.4,3.7L357.4,82.3L357.4,82.3z"/>
		<path class="st0" d="M416.4,62.5l1,31.3h-7.9l-0.4-14v-1c0-1.7,0.1-2.9,0.4-5.2c-0.8,2-1.4,3.4-2.2,5.2l-7.7,15.1h-4.2l-2.7-12.1
			c-0.7-2.9-0.9-4.6-1.3-8.6c-0.8,3.8-1.1,5.3-1.6,7.2l-4,13.6h-8.2l9.9-31.3h7.8l2.3,10.5c0.6,2.6,1,5.2,1.4,8.2
			c0.5-1.4,1.2-3.2,1.8-4.3l7.4-14.5L416.4,62.5L416.4,62.5z"/>
		<path class="st0" d="M443.5,62.5l-0.8,6.9h-9.2l-0.7,5.2h8.9l-0.8,6.8H432l-0.7,5.4h9.6l-0.8,6.9h-17.5l3.8-31.3L443.5,62.5
			L443.5,62.5z"/>
		<path class="st0" d="M479.9,62.5l-3.8,31.3h-8.7l-8.3-14c-1.4-2.2-2.5-4.6-3.8-7.7v1.4c0,2.3-0.1,4-0.3,5.9l-1.8,14.4h-7.9
			l3.8-31.3h8.5l8.9,15.1l1.4,2.5l1.2,2.4l0.6,1.2c0-2,0.1-3.5,0.4-5.3l1.9-15.8L479.9,62.5L479.9,62.5z"/>
		<path class="st0" d="M497.2,69.4l-3,24.4h-7.9l3-24.4h-6.7l0.8-6.9h21.2l-0.8,6.9H497.2L497.2,69.4z"/>
		<path class="st0" d="M538.9,76.6v0.6c0,10.3-6.8,17.2-17,17.2s-17.1-6.4-17.1-15.8s7.3-16.7,17.7-16.7
			C532,61.9,538.5,67.7,538.9,76.6L538.9,76.6z M530.8,77.4c-0.3-4.9-3.6-8.1-8.5-8.1c-5.3,0-9.2,3.8-9.2,8.9s3.5,8.6,8.8,8.6
			s9-3.6,9-8.9C530.8,77.8,530.8,77.6,530.8,77.4L530.8,77.4z"/>
		<path class="st0" d="M565,64.7l-3.5,6c-2.1-1.6-3.8-2.3-5.5-2.3c-2.2,0-3.5,1-3.5,2.7c0,1.5,0.8,2.2,4,3.8
			c5.2,2.4,6.9,4.6,6.9,8.8c0,6.3-5,10.7-12,10.7c-3.8,0-6.4-0.8-10.5-3.4l3.6-6c2.8,1.9,4.5,2.6,6.6,2.6c2.5,0,4.2-1.3,4.2-3.2
			c0-1.4-0.7-2.1-3.7-3.6c-5.6-2.8-7.2-4.8-7.2-9.1c0-5.7,4.9-9.8,11.5-9.8C559.1,61.9,561.9,62.8,565,64.7L565,64.7z"/>
	</g>
	<polygon class="st0" points="258.2,141.9 263.7,109.8 178,109.8 172.6,141.9 	"/>
	<polygon class="st0" points="193.2,231.3 198.7,199.2 164.4,199.2 158.2,231.3 	"/>
	<polygon class="st0" points="238.9,186.6 244.4,154.5 198.7,154.5 178.4,186.6 	"/>
</g>
<g>
	<polygon class="st1" points="165.9,124.1 166.1,124.1 168.6,109 68.4,109 62.3,141.6 162.9,141.6 	"/>
	<polygon class="st1" points="185.4,154.3 59.8,154.3 53.5,186.7 164.9,186.7 	"/>
	<polygon class="st1" points="77.3,61.7 70.8,96.3 169.3,96.3 175.2,61.7 	"/>
	<polygon class="st1" points="105,199.6 98.8,232.1 91.5,279.5 153,199.6 	"/>
</g>
</svg>
