<svg viewBox="0 0 175 42" xmlns="http://www.w3.org/2000/svg" xmlns:xlink="http://www.w3.org/1999/xlink"><linearGradient id="a" gradientUnits="userSpaceOnUse" x1="6.64" x2="32.68" y1="10.4" y2="10.4"><stop offset=".34" stop-color="#61a930"/><stop offset="1" stop-color="#bccf33"/></linearGradient><clipPath id="b"><path d="m25.7 19.29a5 5 0 0 1 .61 2.19c0 4.05-4.12 11.09-8.28 14-5 3.51-10.68 1.09-12-2.45-.72-2 .53-2.07-.76-5.65-1-2.73-2.93-3-3.66-4.86-1.61-4 2.53-7.56 6.26-8.21 5.54-.94 16.42 1.8 17.83 4.98z"/></clipPath><linearGradient id="c" gradientTransform="matrix(0 3.07 -2.46 0 -645.26 1077.49)" gradientUnits="userSpaceOnUse" x1="-341.81" x2="-341.81" y1="-264.23" y2="-273.99"><stop offset=".2" stop-color="#873888"/><stop offset=".76" stop-color="#bf88b7"/><stop offset="1" stop-color="#dec3dc"/></linearGradient><clipPath id="d"><path d="m25.72 19.28c3-1.26 12.28-.3 19 5.26a6 6 0 0 1 -.41 9.26 8.32 8.32 0 0 1 -5.18 1.58 12.66 12.66 0 0 0 -4.43 1.13c-2.65 1.14-3.57 2.66-4.82 3.44-5.09 3.19-11.58-.33-11.94-4.38-.7-8.57 5.12-15.19 7.78-16.29z"/></clipPath><linearGradient id="e" gradientTransform="matrix(3.28 -1.6 1.05 2.15 -409.78 361.55)" gradientUnits="userSpaceOnUse" x1="150.53" x2="150.53" y1="-39.43" y2="-48.8"><stop offset=".17" stop-color="#48a5d8"/><stop offset=".75" stop-color="#85c7ea"/><stop offset="1" stop-color="#cae7f6"/></linearGradient><clipPath id="f"><path d="m25.68 19.24c-2.06-4.24 3.52-12.14 6.83-14.24 1.72-1.09 7.13-2.76 10.57 1.22 1.18 1.38.46 3 1.9 5.25 1.66 2.57 3.35 2.88 4.31 4.07 3.11 3.88-.22 8.18-4.45 9-6.33 1.24-17.58-2.05-19.16-5.3z"/></clipPath><linearGradient id="g" gradientUnits="userSpaceOnUse" x1="45.65" x2="23.39" y1="4.61" y2="13.6"><stop offset=".29" stop-color="#e94e1b"/><stop offset=".75" stop-color="#ec8825"/><stop offset="1" stop-color="#f5c6a8"/></linearGradient><clipPath id="h"><path d="m17.72 4.61a11.1 11.1 0 0 0 3.28-1.82 8 8 0 0 1 7.31-1.5c1.1.31 3.69 1.55 4.19 3.71.94 3.8-1.93 12.15-6.75 14.29-4 1.79-14.29-1.22-17.93-5-2.57-2.66-.51-6.45 2-7.78 1.25-.66 1.87-1 4.64-1.12a11.24 11.24 0 0 0 3.26-.78z"/></clipPath><linearGradient id="i" gradientTransform="matrix(-2.78 1.51 -.83 -1.52 -1530.78 -426.57)" gradientUnits="userSpaceOnUse" x1="-367.56" x2="-367.56" y1="-645.56" y2="-656.22"><stop offset="0" stop-color="#5faf2d"/><stop offset=".46" stop-color="#b1c718"/><stop offset="1" stop-color="#d5e395"/></linearGradient><clipPath id="j"><path d="m49.29 15.52c-1-1.19-2.65-1.5-4.31-4.07-1.44-2.22-.72-3.87-1.9-5.25-3.44-4-8.85-2.31-10.57-1.22v.02c-.51-2.16-3.1-3.4-4.24-3.71a8 8 0 0 0 -7.27 1.5 11.1 11.1 0 0 1 -3.24 1.82 11.24 11.24 0 0 1 -3.23.78c-2.77.17-3.39.46-4.64 1.12-2.54 1.33-4.6 5.12-2 7.78l.06.05c-3.72.67-7.82 4.18-6.22 8.2.73 1.82 2.68 2.13 3.66 4.86 1.29 3.58 0 3.66.76 5.65 1.2 3.53 6.85 5.95 11.85 2.48.36 4 6.85 7.57 11.94 4.38 1.25-.78 2.17-2.3 4.82-3.44a12.66 12.66 0 0 1 4.43-1.13 8.32 8.32 0 0 0 5.18-1.58 6 6 0 0 0 .42-9.25h.07c4.21-.81 7.54-5.11 4.43-8.99z"/></clipPath><radialGradient id="k" cx="26.1823" cy="20.4973" fx="18.32277361" gradientUnits="userSpaceOnUse" r="20.898"><stop offset=".39" stop-color="#fff"/><stop offset="1" stop-color="#fff" stop-opacity="0"/></radialGradient><radialGradient id="l" cx="33.1402" cy="16.8523" gradientUnits="userSpaceOnUse" r="15.9894"><stop offset=".38" stop-color="#fff"/><stop offset="1" stop-color="#fff" stop-opacity="0"/></radialGradient><path d="m63.12 41.11c-3.4 0-5.82-1.7-6.45-4.55a22.15 22.15 0 0 1 -.22-4.17v-16.39c0-2.58-.06-4.66-.77-6l-.44-.81 7.61-2.33.27.65a23.71 23.71 0 0 1 1.12 7.12l-.04 16.27a24.31 24.31 0 0 0 .15 4.1c.13.55.34.65.72.65a1.27 1.27 0 0 0 .37 0l.78-.32 1.49 4.92-.66.26a11.32 11.32 0 0 1 -3.93.6zm22.59.35-.36-.38a8.89 8.89 0 0 1 -1.46-2.08 8.85 8.85 0 0 1 -5.89 2.15c-3.89 0-6.74-1.94-7.43-5.06a16 16 0 0 1 -.34-3.65v-14.72l7.57-1.34v15a14.78 14.78 0 0 0 .2 2.83 1.43 1.43 0 0 0 1.08 1.08c1.45 0 3-1.54 3.53-2.67l.05-14.76 7.42-1.46v17.72a6.91 6.91 0 0 0 1.3 4l.72.8zm18.61-.31c-5.49 0-9.29-3-10.45-8.15s.1-10.68 3.25-13.73a10.1 10.1 0 0 1 7.6-2.83 11.36 11.36 0 0 1 7.28 2.8l.54.47-3.68 4.83-.61-.54a5.52 5.52 0 0 0 -3.33-1.44 2.24 2.24 0 0 0 -2 1c-1.07 1.49-1.7 5.72-.94 9.12.27 1.22 1 2.67 2.76 2.67 1.29 0 2.55-.62 4.1-2l.61-.53 3.8 4.77-.56.48a12.08 12.08 0 0 1 -8.37 3.08zm34.68-.56-9.6-13.2 8-10.31h-9.5l-4.7 7.78v-8.77c0-4-.39-7.19-1.15-8.64l-.3-.57-7.37 2.3.38.79c.57 1.19.82 3 .82 5.73l-.11 24.89h7.63l.05-10.79 6.74 10.79zm1.51-23-.08 23h7.63l.06-24.15zm32.49 18.77a4.27 4.27 0 0 1 -1.55-3.7v-8.34a41.19 41.19 0 0 1 .29-5.28l.09-.56-.51-.25a20.21 20.21 0 0 0 -8.32-1.58c-4.16 0-7 1.15-9.12 3.71-2.55 3-3.42 8.11-2.28 13.24 1.09 4.89 4.18 7.59 8.72 7.59a7.36 7.36 0 0 0 5.46-2.06 6.25 6.25 0 0 0 2.17 2l.45.26 5.32-4.39zm-9-3.86a3.43 3.43 0 0 1 -3 2.74c-.64 0-1.3-.17-1.76-2.23-.64-2.89-.56-7 .67-8.81 1-1.49 1.81-1.55 3.23-1.55a4.41 4.41 0 0 1 .95.12zm-19.6-17.06a4.45 4.45 0 0 1 -4.56-4.32 4.56 4.56 0 0 1 9.11 0 4.45 4.45 0 0 1 -4.59 4.32z" fill="#e94e1b"/><path d="m17.72 4.61a11.1 11.1 0 0 0 3.28-1.82 8 8 0 0 1 7.31-1.5c1.1.31 3.69 1.55 4.19 3.71.94 3.8-1.93 12.15-6.75 14.29-4 1.79-14.29-1.22-17.93-5-2.57-2.66-.51-6.45 2-7.78 1.25-.66 1.87-1 4.64-1.12a11.24 11.24 0 0 0 3.26-.78z" fill="#5faf2d"/><path d="m25.68 19.24c-2.06-4.24 3.52-12.14 6.83-14.24 1.72-1.09 7.13-2.76 10.57 1.22 1.18 1.38.46 3 1.9 5.25 1.66 2.57 3.35 2.88 4.31 4.07 3.11 3.88-.22 8.18-4.45 9-6.33 1.24-17.58-2.05-19.16-5.3z" fill="#e94e1b"/><path d="m25.72 19.28c3-1.26 12.28-.3 19 5.26a6 6 0 0 1 -.41 9.26 8.32 8.32 0 0 1 -5.18 1.58 12.66 12.66 0 0 0 -4.43 1.13c-2.65 1.14-3.57 2.66-4.82 3.44-5.09 3.19-11.58-.33-11.94-4.38-.7-8.57 5.12-15.19 7.78-16.29z" fill="#48a5d8"/><path d="m25.7 19.29a5 5 0 0 1 .61 2.19c0 4.05-4.12 11.09-8.28 14-5 3.51-10.68 1.09-12-2.45-.72-2 .53-2.07-.76-5.65-1-2.73-2.93-3-3.66-4.86-1.61-4 2.53-7.56 6.26-8.21 5.54-.94 16.42 1.8 17.83 4.98z" fill="#873888"/><g clip-path="url(#b)"><path d="m5.02 23.14h24.03v13.02h-24.03z" fill="url(#c)" transform="matrix(.93226067 -.36178729 .36178729 .93226067 -9.57 8.17)"/></g><g clip-path="url(#d)"><path d="m49.2 32.14-14 6.92-9.71-20.22 13.92-6.81z" fill="url(#e)"/></g><g clip-path="url(#f)"><path d="m47.9 10.27-4.39-10.96-22.42 8.6 4.61 11.38 9.11-3.7 9.07-3.67z" fill="url(#g)"/></g><path d="m17.72 4.61a11.1 11.1 0 0 0 3.28-1.82 8 8 0 0 1 7.31-1.5c1.1.31 3.69 1.55 4.19 3.71.94 3.8-1.93 12.15-6.75 14.29-4 1.79-14.29-1.22-17.93-5-2.57-2.66-.51-6.45 2-7.78 1.25-.66 1.87-1 4.64-1.12a11.24 11.24 0 0 0 3.26-.78z" fill="url(#a)"/><g clip-path="url(#h)"><path d="m17.67 3.74 11.69-5.65 8.22 15.84-11.76 5.55z" fill="url(#i)"/></g><g clip-path="url(#d)" fill="#4563ab"><path d="m25.9 19.72c-2.32-4.72 3.98-13.72 7.72-16.08 1.93-1.24 8.04-3.13 11.92 1.36 1.34 1.56.51 3.42 2.14 5.94 1.88 2.9 3.78 3.24 4.86 4.59 3.52 4.37-.24 9.23-5 10.17-7.16 1.4-19.85-2.31-21.64-5.98z"/><path d="m25.83 19.3a5.93 5.93 0 0 1 .72 2.6c-.06 4.77-4.86 13.08-9.77 16.54-5.88 4.14-12.6 1.28-14.11-2.89-.85-2.36.63-2.44-.89-6.67-1.17-3.22-3.47-3.59-4.32-5.74-1.9-4.75 3-8.91 7.39-9.68 6.48-1.14 19.32 2.1 20.98 5.84z"/></g><g clip-path="url(#f)"><path d="m16.2 1.88a13.1 13.1 0 0 0 3.87-2.17 9.58 9.58 0 0 1 8.73-1.79c1.36.37 4.43 1.85 5.05 4.4 1.12 4.54-2.3 14.51-8.06 17.07-4.8 2.13-17.07-1.47-21.41-6-3.07-3.16-.61-7.7 2.42-9.29 1.49-.73 2.2-1.1 5.54-1.28a13.72 13.72 0 0 0 3.86-.94z" fill="#db371b"/></g><g clip-path="url(#b)"><path d="m16.2 1.88a13.1 13.1 0 0 0 3.87-2.17 9.58 9.58 0 0 1 8.73-1.79c1.36.37 4.43 1.85 5.05 4.4 1.12 4.54-2.3 14.51-8.06 17.07-4.8 2.13-17.07-1.47-21.41-6-3.07-3.16-.61-7.7 2.42-9.29 1.49-.73 2.2-1.1 5.54-1.28a13.72 13.72 0 0 0 3.86-.94z" fill="#662d86"/></g><path d="m32.51 5c-3.32 2.12-8.89 10-6.83 14.25a.08.08 0 0 0 0 0h.05c4.84-2.13 7.7-10.45 6.78-14.25z" fill="#6d7b31"/><path d="m26.31 21.48a5 5 0 0 0 -.61-2.19c-2.7 1.13-8.44 7.71-7.7 16.24h.05c4.14-2.96 8.21-10 8.26-14.05z" fill="#806faf"/><path d="m44.77 24.55c-6.77-5.55-16.04-6.55-19.05-5.27 1.65 3.23 12.74 6.47 19.05 5.27z" fill="#a85130"/><path d="m25.7 19.28c-1.41-3.17-12.29-5.91-17.78-5 3.63 3.77 13.75 6.72 17.78 5z" fill="#798f52"/><g clip-path="url(#j)" opacity=".4"><path d="m51.07 20.7a26.2 26.2 0 1 0 -26.2 26.2 26.2 26.2 0 0 0 26.2-26.2z" fill="url(#k)"/><path d="m51.07 20.7a26.2 26.2 0 1 0 -26.2 26.2 26.2 26.2 0 0 0 26.2-26.2z" fill="url(#k)" opacity=".3"/><path d="m54.31 27.52a26.21 26.21 0 1 0 -26.2 26.2 26.2 26.2 0 0 0 26.2-26.2z" fill="url(#l)" opacity=".4"/></g></svg>