<svg width="81" height="80" viewBox="0 0 81 80" fill="none" xmlns="http://www.w3.org/2000/svg">
<g opacity="0.8">
<g clip-path="url(#clip0_7647_3441)">
<path fill-rule="evenodd" clip-rule="evenodd" d="M40.5961 52.8445H55.1581C58.481 52.8445 58.5157 49.3114 58.1762 47.568C57.9915 46.3949 55.9986 46.4134 55.7792 47.568V48.9281C55.7786 49.228 55.6592 49.5155 55.4471 49.7275C55.2351 49.9396 54.9476 50.059 54.6477 50.0596H26.7339C26.434 50.059 26.1466 49.9396 25.9345 49.7275C25.7224 49.5155 25.603 49.228 25.6024 48.9281V47.568C25.383 46.4134 23.3902 46.3949 23.2054 47.568C22.866 49.3114 22.9006 52.8445 26.2236 52.8445H40.5961ZM30.304 18.9961H52.7542C54.3314 18.9961 55.6222 20.3631 55.6222 22.0327V23.4829C55.6222 25.5335 52.8511 25.5242 52.8511 23.4968V22.707C52.8511 22.462 52.7538 22.2271 52.5806 22.0539C52.4074 21.8806 52.1724 21.7833 51.9275 21.7833H29.4311C29.1861 21.7833 28.9512 21.8806 28.7779 22.0539C28.6047 22.2271 28.5074 22.462 28.5074 22.707V23.4829C28.5074 25.5219 25.861 25.5081 25.861 23.5268V22.035C25.868 20.3655 27.1565 18.9961 28.7337 18.9961H30.304Z" fill="white"/>
<path fill-rule="evenodd" clip-rule="evenodd" d="M55.0565 35.6713C55.8274 36.0156 56.4841 36.5725 56.9495 37.2769C57.415 37.9812 57.6699 38.8037 57.6844 39.6478C57.6844 42.0909 55.5507 44.0907 52.9436 44.0907H45.6303C45.313 44.1001 45.0048 43.9842 44.7723 43.7682C44.5398 43.5521 44.4018 43.2532 44.3879 42.9361V29.0162C44.3892 28.6928 44.5183 28.383 44.7472 28.1545C44.9761 27.9261 45.2861 27.7975 45.6095 27.7969H51.6989C52.6119 27.7948 53.5054 28.0616 54.2677 28.564C55.03 29.0664 55.6276 29.7822 55.9857 30.6221C56.3438 31.4619 56.4466 32.3887 56.2814 33.2866C56.1161 34.1846 55.6901 35.014 55.0565 35.6713ZM49.5998 34.5398H51.9206V34.5144C52.4414 34.4327 52.9161 34.1682 53.2597 33.7683C53.6033 33.3685 53.7933 32.8594 53.7957 32.3322C53.7938 31.7473 53.5607 31.1868 53.1471 30.7732C52.7335 30.3596 52.173 30.1264 51.5881 30.1246H46.9119V41.6707H52.8397C53.1452 41.6804 53.4496 41.6286 53.7348 41.5184C54.0199 41.4081 54.28 41.2417 54.4996 41.029C54.7192 40.8163 54.8938 40.5616 55.0131 40.2801C55.1323 39.9986 55.1937 39.696 55.1937 39.3903C55.1937 39.0846 55.1323 38.782 55.0131 38.5005C54.8938 38.219 54.7192 37.9643 54.4996 37.7516C54.28 37.5389 54.0199 37.3725 53.7348 37.2622C53.4496 37.152 53.1452 37.1002 52.8397 37.11H51.916H49.5998C49.4315 37.11 49.2649 37.0768 49.1094 37.0124C48.9539 36.948 48.8126 36.8536 48.6936 36.7346C48.5746 36.6156 48.4802 36.4743 48.4158 36.3188C48.3514 36.1633 48.3182 35.9966 48.3182 35.8283C48.3182 35.66 48.3514 35.4934 48.4158 35.3379C48.4802 35.1824 48.5746 35.0411 48.6936 34.9221C48.8126 34.8031 48.9539 34.7087 49.1094 34.6443C49.2649 34.5799 49.4315 34.5467 49.5998 34.5467" fill="white"/>
<path d="M31.23 57.1196C31.23 57.0154 31.2714 56.9156 31.345 56.842C31.4186 56.7684 31.5185 56.727 31.6226 56.727C31.7267 56.727 31.8266 56.7684 31.9002 56.842C31.9738 56.9156 32.0152 57.0154 32.0152 57.1196V59.2394C32.0146 59.7055 31.8293 60.1524 31.4999 60.4822C31.1706 60.812 30.7239 60.9978 30.2579 60.999C29.7918 60.9984 29.3449 60.8132 29.0151 60.4838C28.6853 60.1544 28.4994 59.7078 28.4982 59.2417V57.1219C28.4941 57.0679 28.5011 57.0137 28.5189 56.9627C28.5367 56.9116 28.5649 56.8647 28.6016 56.825C28.6384 56.7854 28.6829 56.7537 28.7325 56.7321C28.782 56.7104 28.8355 56.6992 28.8896 56.6992C28.9437 56.6992 28.9972 56.7104 29.0468 56.7321C29.0964 56.7537 29.1409 56.7854 29.1777 56.825C29.2144 56.8647 29.2426 56.9116 29.2604 56.9627C29.2782 57.0137 29.2852 57.0679 29.2811 57.1219V59.2417C29.2835 59.5004 29.3875 59.7478 29.5706 59.9306C29.7538 60.1133 30.0014 60.2167 30.2602 60.2185C30.5192 60.2173 30.7673 60.1137 30.9503 59.9303C31.1333 59.7468 31.2364 59.4985 31.237 59.2394L31.23 57.1196Z" fill="white"/>
<path d="M34.9432 60.2135C35.0474 60.2135 35.1472 60.2548 35.2208 60.3285C35.2944 60.4021 35.3358 60.5019 35.3358 60.606C35.3358 60.7102 35.2944 60.81 35.2208 60.8836C35.1472 60.9573 35.0474 60.9986 34.9432 60.9986H33.8533C33.4632 60.9986 33.089 60.8436 32.8132 60.5678C32.5373 60.2919 32.3823 59.9178 32.3823 59.5276V57.1168C32.3823 57.0133 32.4234 56.9141 32.4966 56.8409C32.5698 56.7677 32.6691 56.7266 32.7726 56.7266C32.8761 56.7266 32.9753 56.7677 33.0485 56.8409C33.1217 56.9141 33.1628 57.0133 33.1628 57.1168V59.523C33.1628 59.7068 33.2358 59.883 33.3657 60.0129C33.4957 60.1428 33.6719 60.2158 33.8556 60.2158H34.9432V60.2135Z" fill="white"/>
<path d="M43.2264 42.7028C43.2547 42.8983 43.2432 43.0975 43.1927 43.2885C43.1422 43.4795 43.0537 43.6584 42.9324 43.8143C42.8112 43.9703 42.6597 44.1002 42.4871 44.1963C42.3144 44.2923 42.1242 44.3526 41.9277 44.3734C41.7313 44.3943 41.5326 44.3752 41.3437 44.3175C41.1547 44.2598 40.9794 44.1645 40.8281 44.0374C40.6769 43.9103 40.5528 43.754 40.4634 43.5779C40.3739 43.4017 40.3209 43.2093 40.3076 43.0122L39.0999 31.9488L34.8486 42.7674V42.7952V42.8182V42.8413V42.8552V42.876V42.8991C34.7554 43.0622 34.6305 43.205 34.4814 43.3193L34.4584 43.3378C34.381 43.4076 34.2958 43.4681 34.2043 43.5179L34.1766 43.5318L34.1512 43.5456H34.1351H34.1166H34.1004H34.0819H34.0681H34.0519H34.0381H34.0242H34.0057C33.8677 43.595 33.7228 43.6222 33.5762 43.6265H33.47C33.3053 43.6218 33.1427 43.5882 32.9897 43.5272H32.9689H32.9481H32.9296H32.9158H32.8973H32.8812H32.8696L32.8442 43.5133L32.8211 43.4995H32.8073C32.7253 43.4558 32.6479 43.4039 32.5763 43.3447L32.5278 43.3009L32.4909 43.2662L32.4031 43.2431L32.3593 43.1946C32.3001 43.1231 32.2483 43.0457 32.2046 42.9637V42.9499L32.1907 42.9268L32.1768 42.9014V42.8852V42.8667V42.8529V42.8321V42.8136V42.7928L27.8471 31.9488L26.644 43.0122C26.6029 43.399 26.4099 43.7536 26.1074 43.9981C25.805 44.2425 25.4177 44.3568 25.031 44.3158C24.6442 44.2747 24.2896 44.0817 24.0451 43.7793C23.8007 43.4768 23.6864 43.0895 23.7274 42.7028L25.1453 29.6603C25.1795 29.3532 25.272 29.0554 25.4178 28.7828C25.5997 28.4423 25.86 28.15 26.1772 27.93C26.4944 27.7099 26.8594 27.5685 27.2421 27.5174H27.3206C27.4443 27.5082 27.5686 27.5082 27.6923 27.5174C27.8417 27.5233 27.9902 27.5434 28.1357 27.5774C28.5188 27.6651 28.8745 27.8453 29.172 28.1021C29.4695 28.3589 29.6996 28.6845 29.8422 29.0507L33.4769 38.2368L37.1047 29.0207C37.2753 28.5838 37.5695 28.2062 37.9513 27.9339C38.3331 27.6615 38.786 27.5064 39.2546 27.4874C39.3783 27.4782 39.5026 27.4782 39.6264 27.4874H39.7049C40.0874 27.5389 40.4523 27.6804 40.7694 27.9004C41.0865 28.1204 41.3469 28.4126 41.5292 28.7528C41.6 28.8893 41.6594 29.0314 41.707 29.1777C41.7537 29.3282 41.7854 29.4829 41.8017 29.6396L43.2264 42.7028Z" fill="white"/>
<path d="M28.3459 60.5627C28.3555 60.6154 28.3541 60.6695 28.342 60.7217C28.3298 60.7739 28.3071 60.823 28.2753 60.8661C28.2434 60.9092 28.2031 60.9453 28.1568 60.9722C28.1104 60.9991 28.0591 61.0162 28.0059 61.0225C27.9527 61.0288 27.8988 61.0242 27.8474 61.0089C27.7961 60.9936 27.7484 60.9679 27.7074 60.9335C27.6663 60.8991 27.6328 60.8566 27.6087 60.8087C27.5847 60.7609 27.5708 60.7086 27.5677 60.6551L27.2329 57.8309L26.0344 60.602C25.9932 60.6974 25.9159 60.7727 25.8194 60.8112C25.7229 60.8497 25.615 60.8484 25.5194 60.8075C25.4276 60.7679 25.3547 60.6942 25.3162 60.602L24.1177 57.8309L23.7806 60.6551C23.7775 60.7086 23.7636 60.7609 23.7395 60.8087C23.7155 60.8566 23.6819 60.8991 23.6409 60.9335C23.5998 60.9679 23.5522 60.9936 23.5009 61.0089C23.4495 61.0242 23.3956 61.0288 23.3424 61.0225C23.2892 61.0162 23.2378 60.9991 23.1915 60.9722C23.1452 60.9453 23.1049 60.9092 23.073 60.8661C23.0412 60.823 23.0185 60.7739 23.0063 60.7217C22.9942 60.6695 22.9928 60.6154 23.0024 60.5627L23.3973 57.2836C23.4099 57.1803 23.448 57.0818 23.508 56.9967C23.5681 56.9117 23.6482 56.8429 23.7413 56.7964C23.7659 56.783 23.7913 56.7714 23.8175 56.7617H23.8476C23.8849 56.7488 23.9237 56.7402 23.963 56.7363C24.0614 56.7227 24.1616 56.7311 24.2562 56.7611C24.3509 56.791 24.4377 56.8418 24.5103 56.9095C24.5394 56.9368 24.5657 56.967 24.5888 56.9996C24.6059 57.0232 24.6213 57.0478 24.635 57.0735C24.6436 57.0876 24.6513 57.1023 24.6581 57.1174L25.6741 59.4728L26.6902 57.0989C26.7319 57.0046 26.7957 56.9216 26.876 56.8569C26.9563 56.7923 27.051 56.7477 27.152 56.7271C27.1902 56.7193 27.2287 56.7139 27.2675 56.7109H27.3876C27.4875 56.7222 27.5836 56.7561 27.6684 56.8102C27.7533 56.8642 27.8247 56.9369 27.8771 57.0227C27.899 57.0583 27.9168 57.0962 27.9302 57.1358C27.9399 57.1604 27.9469 57.186 27.951 57.212C27.9521 57.229 27.9521 57.2459 27.951 57.2628L28.3459 60.5627Z" fill="white"/>
<path d="M36.6522 60.6084C36.6522 60.7125 36.6108 60.8123 36.5372 60.8859C36.4636 60.9596 36.3637 61.0009 36.2596 61.0009C36.1555 61.0009 36.0556 60.9596 35.982 60.8859C35.9084 60.8123 35.867 60.7125 35.867 60.6084V57.5117H34.7517C34.6476 57.5117 34.5477 57.4703 34.4741 57.3967C34.4005 57.3231 34.3591 57.2232 34.3591 57.1191C34.3591 57.015 34.4005 56.9152 34.4741 56.8415C34.5477 56.7679 34.6476 56.7266 34.7517 56.7266H37.7675C37.8716 56.7266 37.9715 56.7679 38.0451 56.8415C38.1187 56.9152 38.1601 57.015 38.1601 57.1191C38.1601 57.2232 38.1187 57.3231 38.0451 57.3967C37.9715 57.4703 37.8716 57.5117 37.7675 57.5117H36.6522V60.6084Z" fill="white"/>
<path d="M39.0998 60.6084C39.0998 60.7125 39.0585 60.8123 38.9848 60.8859C38.9112 60.9596 38.8114 61.0009 38.7073 61.0009C38.6031 61.0009 38.5033 60.9596 38.4297 60.8859C38.3561 60.8123 38.3147 60.7125 38.3147 60.6084V57.1191C38.3147 57.015 38.3561 56.9152 38.4297 56.8415C38.5033 56.7679 38.6031 56.7266 38.7073 56.7266C38.8114 56.7266 38.9112 56.7679 38.9848 56.8415C39.0585 56.9152 39.0998 57.015 39.0998 57.1191V60.6084Z" fill="white"/>
<path d="M47.1382 60.5631C47.1448 60.6632 47.1128 60.7621 47.0488 60.8394C46.9848 60.9167 46.8935 60.9665 46.7939 60.9787C46.6943 60.9908 46.5938 60.9643 46.5131 60.9046C46.4324 60.8449 46.3776 60.7566 46.36 60.6578L46.2214 59.5493H44.8729C44.8189 59.5535 44.7647 59.5464 44.7137 59.5286C44.6626 59.5108 44.6157 59.4827 44.576 59.4459C44.5364 59.4092 44.5047 59.3646 44.483 59.3151C44.4614 59.2655 44.4502 59.212 44.4502 59.1579C44.4502 59.1038 44.4614 59.0503 44.483 59.0008C44.5047 58.9512 44.5364 58.9066 44.576 58.8699C44.6157 58.8331 44.6626 58.805 44.7137 58.7872C44.7647 58.7694 44.8189 58.7624 44.8729 58.7665H46.1337L46.0967 58.4778C46.0967 58.4778 46.0967 58.4594 46.0967 58.4501C46.0865 58.3823 46.0719 58.3152 46.0529 58.2492C46.0317 58.1786 46.0047 58.1098 45.972 58.0437C45.9034 57.8893 45.7922 57.7577 45.6516 57.664C45.5109 57.5704 45.3466 57.5187 45.1777 57.5149C45.1108 57.5154 45.0443 57.5231 44.9791 57.538C44.9181 57.5532 44.8592 57.5756 44.8036 57.605C44.6483 57.6948 44.5174 57.8213 44.4224 57.9735C44.3274 58.1257 44.2711 58.2989 44.2586 58.4778L44.0138 60.6578C44.0082 60.7087 43.9926 60.758 43.968 60.803C43.9433 60.8479 43.91 60.8875 43.87 60.9196C43.83 60.9516 43.7841 60.9755 43.7349 60.9898C43.6857 61.0041 43.6341 61.0086 43.5832 61.003C43.5322 60.9974 43.4829 60.9818 43.438 60.9571C43.393 60.9324 43.3534 60.8991 43.3214 60.8591C43.2893 60.8192 43.2654 60.7732 43.2511 60.724C43.2368 60.6748 43.2323 60.6233 43.2379 60.5723L43.4827 58.3924C43.5087 58.0839 43.6106 57.7866 43.7795 57.5272C43.9483 57.2677 44.1788 57.054 44.4503 56.9053C44.5605 56.8498 44.6767 56.8072 44.7967 56.7783C44.9216 56.7492 45.0494 56.7345 45.1777 56.7344C45.4922 56.7361 45.7997 56.8277 46.064 56.9983C46.3283 57.1689 46.5383 57.4114 46.6694 57.6973C46.7229 57.8044 46.7677 57.9156 46.8034 58.0299C46.8335 58.1351 46.8558 58.2424 46.8703 58.3508C46.8725 58.3623 46.8725 58.374 46.8703 58.3855L47.1382 60.5631Z" fill="white"/>
<path d="M48.3366 60.6084C48.3407 60.6623 48.3337 60.7165 48.3159 60.7676C48.2981 60.8187 48.27 60.8655 48.2332 60.9052C48.1965 60.9449 48.1519 60.9765 48.1023 60.9982C48.0528 61.0199 47.9993 61.031 47.9452 61.031C47.8911 61.031 47.8376 61.0199 47.788 60.9982C47.7385 60.9765 47.6939 60.9449 47.6572 60.9052C47.6204 60.8655 47.5923 60.8187 47.5745 60.7676C47.5567 60.7165 47.5496 60.6623 47.5538 60.6084V57.3755C47.5514 57.3532 47.5514 57.3307 47.5538 57.3085C47.5589 57.2651 47.5689 57.2225 47.5838 57.1815L47.6161 57.1122C47.6837 56.9921 47.793 56.9009 47.9233 56.8559L47.9764 56.842H48.0179H48.1103H48.1218C48.202 56.8454 48.2805 56.8661 48.3519 56.9028C48.4232 56.9395 48.4858 56.9912 48.5352 57.0545L50.6135 59.717V57.1191C50.6135 57.015 50.6549 56.9152 50.7285 56.8415C50.8021 56.7679 50.9019 56.7266 51.0061 56.7266C51.1102 56.7266 51.21 56.7679 51.2836 56.8415C51.3573 56.9152 51.3986 57.015 51.3986 57.1191V60.3521C51.3983 60.4341 51.3796 60.5149 51.3441 60.5888C51.3085 60.6627 51.2569 60.7278 51.1931 60.7793C51.168 60.8003 51.141 60.8189 51.1123 60.8347C51.0968 60.8437 51.0806 60.8515 51.0638 60.8578L51.0315 60.8716C50.8938 60.9198 50.7427 60.9114 50.6112 60.8485L50.5604 60.8231C50.5329 60.8059 50.5074 60.7857 50.4842 60.7631C50.4661 60.7473 50.4491 60.7304 50.4334 60.7123L50.4195 60.6961L48.3366 58.0243V60.6084Z" fill="white"/>
<path d="M54.4607 60.2151C54.5648 60.2151 54.6647 60.2564 54.7383 60.3301C54.8119 60.4037 54.8533 60.5035 54.8533 60.6076C54.8533 60.7118 54.8119 60.8116 54.7383 60.8852C54.6647 60.9588 54.5648 61.0002 54.4607 61.0002H53.3061C52.8964 61.0002 52.5034 60.8374 52.2137 60.5477C51.924 60.258 51.7612 59.8651 51.7612 59.4553V58.2753C51.7624 57.866 51.9256 57.4737 52.2151 57.1843C52.5045 56.8948 52.8967 56.7317 53.3061 56.7305H54.4607C54.5648 56.7305 54.6647 56.7718 54.7383 56.8455C54.8119 56.9191 54.8533 57.0189 54.8533 57.123C54.8533 57.2272 54.8119 57.327 54.7383 57.4006C54.6647 57.4742 54.5648 57.5156 54.4607 57.5156H53.3061C53.1025 57.518 52.9082 57.6011 52.7657 57.7465C52.6935 57.8164 52.6358 57.9 52.5962 57.9923C52.5565 58.0847 52.5357 58.1841 52.5348 58.2846V59.4646C52.536 59.6669 52.6169 59.8606 52.76 60.0037C52.9031 60.1468 53.0968 60.2277 53.2992 60.2289H54.4538L54.4607 60.2151Z" fill="white"/>
<path d="M56.7306 57.5094C56.4546 57.5083 56.1889 57.6143 55.9894 57.805C55.8947 57.894 55.8191 58.0013 55.7671 58.1204C55.7151 58.2394 55.6878 58.3678 55.6869 58.4977V59.2298C55.6874 59.3595 55.7143 59.4879 55.7659 59.607C55.8175 59.726 55.8927 59.8334 55.9871 59.9225C56.1866 60.1132 56.4523 60.2192 56.7283 60.2181C57.0044 60.2192 57.27 60.1132 57.4696 59.9225C57.5642 59.8335 57.6399 59.7262 57.6919 59.6071C57.7439 59.4881 57.7712 59.3597 57.7721 59.2298V58.4977C57.7711 58.368 57.7439 58.2399 57.6924 58.1209C57.6408 58.0019 57.5658 57.8944 57.4719 57.805C57.2711 57.6147 57.0049 57.5089 56.7283 57.5094H56.7306ZM56.7283 56.7266C57.2065 56.7248 57.6668 56.9086 58.0123 57.2392C58.183 57.401 58.3191 57.5958 58.4124 57.8117C58.5056 58.0276 58.5541 58.2602 58.5549 58.4954V59.2275C58.5541 59.4627 58.5056 59.6953 58.4124 59.9112C58.3191 60.1271 58.183 60.3219 58.0123 60.4837C57.6668 60.8143 57.2065 60.998 56.7283 60.9963C56.2501 60.998 55.7899 60.8143 55.4444 60.4837C55.2744 60.3214 55.139 60.1265 55.0461 59.9107C54.9533 59.6948 54.9049 59.4624 54.9041 59.2275V58.4954C54.9049 58.2605 54.9533 58.0281 55.0461 57.8122C55.139 57.5964 55.2744 57.4015 55.4444 57.2392C55.7899 56.9086 56.2501 56.7248 56.7283 56.7266Z" fill="white"/>
<path d="M40.2107 57.5126V60.2167H41.7255C41.7903 60.2167 41.8545 60.2039 41.9143 60.179C41.9741 60.1541 42.0284 60.1177 42.0741 60.0718C42.1198 60.0259 42.156 59.9714 42.1806 59.9114C42.2052 59.8515 42.2177 59.7873 42.2174 59.7225C42.2176 59.5993 42.1715 59.4806 42.0881 59.39L42.0719 59.3761C42.027 59.3295 41.9732 59.2924 41.9137 59.267C41.8542 59.2416 41.7902 59.2285 41.7255 59.2283H41.2036C41.0995 59.2283 40.9997 59.187 40.926 59.1133C40.8524 59.0397 40.8111 58.9399 40.8111 58.8358C40.8111 58.7316 40.8524 58.6318 40.926 58.5582C40.9997 58.4846 41.0995 58.4432 41.2036 58.4432H41.3814C41.4928 58.4334 41.5972 58.3852 41.677 58.3069C41.7209 58.2639 41.7558 58.2125 41.7796 58.1558C41.8034 58.0991 41.8156 58.0382 41.8156 57.9767C41.8156 57.8542 41.7669 57.7368 41.6803 57.6502C41.5937 57.5635 41.4762 57.5149 41.3537 57.5149H40.2107V57.5126ZM39.4255 58.8404V57.1362C39.4253 57.0829 39.4363 57.0302 39.4579 56.9815C39.4796 56.9311 39.5101 56.8849 39.5479 56.8452C39.618 56.7783 39.7098 56.7389 39.8066 56.7344H41.3422C41.6735 56.7344 41.9913 56.866 42.2256 57.1003C42.4599 57.3346 42.5915 57.6523 42.5915 57.9837C42.5908 58.2189 42.5244 58.4492 42.3998 58.6487C42.4833 58.6981 42.5608 58.757 42.6307 58.8242L42.6561 58.8519C42.8803 59.0882 43.0051 59.4015 43.0048 59.7271C43.0042 60.065 42.8697 60.3889 42.6308 60.6278C42.3919 60.8667 42.068 61.0012 41.7301 61.0018H39.8181C39.714 61.0018 39.6141 60.9604 39.5405 60.8868C39.4669 60.8132 39.4255 60.7133 39.4255 60.6092V58.8404Z" fill="white"/>
</g>
</g>
<defs>
<clipPath id="clip0_7647_3441">
<rect width="35.5573" height="42" fill="white" transform="translate(23 19)"/>
</clipPath>
</defs>
</svg>
