<?xml version="1.0" encoding="utf-8"?>
<!-- Generator: Adobe Illustrator 28.0.0, SVG Export Plug-In . SVG Version: 6.00 Build 0)  -->
<svg version="1.1" id="Camada_1" xmlns="http://www.w3.org/2000/svg" xmlns:xlink="http://www.w3.org/1999/xlink" x="0px" y="0px"
	 viewBox="0 0 81 80" style="enable-background:new 0 0 81 80;" xml:space="preserve">
<style type="text/css">
	.st0{opacity:0.8;}
	.st1{fill:#FFFFFF;}
</style>
<g id="Page-1" class="st0">
	<g id="Visa-Inc-logo---Brandlogos.net">
		<path id="Shape" class="st1" d="M49.8,30.1c-4.3,0-8.2,2.2-8.2,6.4c0,4.8,6.9,5.1,6.9,7.5c0,1-1.2,1.9-3.1,1.9
			c-1.7,0-3.4-0.4-4.9-1.3l-0.9,4.2c1.8,0.7,3.7,1.1,5.6,1.1c4.7,0,8.5-2.4,8.5-6.6c0-5-6.9-5.4-6.9-7.6c0-0.8,0.9-1.6,2.9-1.6
			c1.4,0,2.8,0.3,4,0.9l0.9-4C53,30.4,51.4,30.1,49.8,30.1z M10.1,30.4L10,31c1.2,0.2,2.3,0.6,3.5,1c2.1,0.8,2.3,1.2,2.6,2.6l3.9,15
			h5.2l8-19.2H28l-5.2,13l-2.1-11.1c-0.2-1.3-1.2-2-2.4-2H10.1z M35.3,30.4l-4.1,19.2h4.9l4.1-19.2H35.3L35.3,30.4z M62.9,30.4
			c-1.2,0-1.8,0.6-2.3,1.8l-7.3,17.4h5.2l1-2.9h6.3l0.6,2.9H71l-4-19.2H62.9L62.9,30.4z M63.6,35.6l1.5,7.2H61L63.6,35.6L63.6,35.6z
			"/>
	</g>
</g>
</svg>
